<svg xmlns="http://www.w3.org/2000/svg" width="18.786" height="18.786" viewBox="0 0 18.786 18.786"><path d="M9.831.438a9.393,9.393,0,1,0,9.393,9.393A9.4,9.4,0,0,0,9.831.438Zm0,16.109a6.716,6.716,0,1,1,6.716-6.716A6.724,6.724,0,0,1,9.831,16.547Z" transform="translate(-0.438 -0.438)" fill="#3077a9"/><path d="M27.295,16.588l-3.118-2.35V9.993a1.338,1.338,0,0,0-2.677,0v4.7c0,.031.007.059.009.089a1.334,1.334,0,0,0,.524,1.188l3.651,2.751a1.338,1.338,0,1,0,1.611-2.137Z" transform="translate(-13.446 -5.513)" fill="#3077a9"/></svg>