<svg xmlns="http://www.w3.org/2000/svg" width="15.626" height="10.399" viewBox="0 0 15.626 10.399"><path d="M20.323,20.692l-7.4,4.465L5.589,20.692c-.23-.127-.446-.2-.446-.446v-.354a.448.448,0,0,1,.446-.446H20.322a.448.448,0,0,1,.446.446v.354C20.781,20.483,20.6,20.543,20.323,20.692Z" transform="translate(-5.143 -19.446)" fill="#3077a9"/><path d="M20.77,33.014c0-.23-.173-.373-.446-.223l-7.4,4.465L5.59,32.79a.288.288,0,0,0-.446.226V40.38a.448.448,0,0,0,.446.446H20.323a.448.448,0,0,0,.446-.446" transform="translate(-5.144 -30.428)" fill="#3077a9"/></svg>