<svg xmlns="http://www.w3.org/2000/svg" width="29.634" height="20.836" viewBox="0 0 29.634 20.836"><path d="M30.065,7.76a3.724,3.724,0,0,0-2.62-2.637C25.134,4.5,15.867,4.5,15.867,4.5S6.6,4.5,4.289,5.123A3.724,3.724,0,0,0,1.669,7.76a39.061,39.061,0,0,0-.619,7.179,39.061,39.061,0,0,0,.619,7.179,3.668,3.668,0,0,0,2.62,2.595c2.311.623,11.578.623,11.578.623s9.267,0,11.578-.623a3.668,3.668,0,0,0,2.62-2.595,39.061,39.061,0,0,0,.619-7.179,39.061,39.061,0,0,0-.619-7.179ZM12.836,19.345V10.533l7.745,4.406-7.745,4.406Z" transform="translate(-1.05 -4.5)" fill="#3077a9"/></svg>