<svg xmlns="http://www.w3.org/2000/svg" width="26.886" height="21.836" viewBox="0 0 26.886 21.836"><path d="M24.122,8.823c.017.239.017.478.017.717A15.57,15.57,0,0,1,8.462,25.217,15.571,15.571,0,0,1,0,22.743a11.4,11.4,0,0,0,1.331.068,11.035,11.035,0,0,0,6.841-2.354A5.52,5.52,0,0,1,3.02,16.636a6.949,6.949,0,0,0,1.041.085,5.828,5.828,0,0,0,1.45-.188,5.511,5.511,0,0,1-4.418-5.408v-.068a5.549,5.549,0,0,0,2.491.7,5.518,5.518,0,0,1-1.706-7.37,15.663,15.663,0,0,0,11.362,5.766A6.22,6.22,0,0,1,13.1,8.891a5.515,5.515,0,0,1,9.536-3.77,10.849,10.849,0,0,0,3.5-1.331,5.5,5.5,0,0,1-2.422,3.037,11.046,11.046,0,0,0,3.173-.853,11.845,11.845,0,0,1-2.764,2.849Z" transform="translate(0 -3.381)" fill="#3077a9"/></svg>