<svg xmlns="http://www.w3.org/2000/svg" width="22.836" height="22.836" viewBox="0 0 22.836 22.836"><path d="M21.205,2.25H1.626A1.638,1.638,0,0,0,0,3.9V23.44a1.638,1.638,0,0,0,1.626,1.646H21.205a1.643,1.643,0,0,0,1.631-1.646V3.9A1.643,1.643,0,0,0,21.205,2.25ZM6.9,21.824H3.517v-10.9h3.39v10.9ZM5.21,9.437A1.962,1.962,0,1,1,7.172,7.475,1.963,1.963,0,0,1,5.21,9.437Zm14.38,12.387H16.2v-5.3c0-1.264-.025-2.89-1.759-2.89-1.764,0-2.034,1.376-2.034,2.8v5.393H9.027v-10.9h3.247v1.488h.046a3.565,3.565,0,0,1,3.206-1.759c3.425,0,4.063,2.258,4.063,5.194Z" transform="translate(0 -2.25)" fill="#3077a9"/></svg>