<svg xmlns="http://www.w3.org/2000/svg" width="146.201" height="38.297" viewBox="0 0 146.201 38.297"><g transform="translate(0.001 -181.16)"><g transform="translate(-0.002 181.16)"><rect width="2.059" height="38.297" transform="translate(35.437)" fill="#3077a9"/><text transform="translate(40.201 25)" fill="#3077a9" font-size="16" font-family="SegoeUI, Segoe UI"><tspan x="0" y="0">spe</tspan><tspan y="0" letter-spacing="0.01em">c</tspan><tspan y="0">trab</tspan><tspan y="0" letter-spacing="0.02em">k</tspan><tspan y="0">hazia</tspan></text><path d="M30.919,257.908v-.4a1.348,1.348,0,0,1,1.826-1.22,16.33,16.33,0,0,0,8.389.94c5.9-.856,14.669-3.1,21.023.421a1.348,1.348,0,0,1,.674,1.172h0a1.324,1.324,0,0,1-1.8,1.24,17.078,17.078,0,0,0-8.76-.792c-6.142,1.011-14.487,3.177-20.68-.152a1.348,1.348,0,0,1-.677-1.206Z" transform="translate(-30.918 -239.311)" fill="#3077a9"/><path d="M30.92,239.425V239a1.348,1.348,0,0,1,1.826-1.22,16.33,16.33,0,0,0,8.389.94c5.9-.856,14.669-3.1,21.023.421a1.348,1.348,0,0,1,.674,1.172h0a1.324,1.324,0,0,1-1.8,1.24,17.078,17.078,0,0,0-8.76-.792c-6.142,1.011-14.487,3.177-20.68-.152A1.348,1.348,0,0,1,30.92,239.425Z" transform="translate(-30.919 -227.044)" fill="#3077a9"/><path d="M30.92,274.256v-.421a1.348,1.348,0,0,1,1.826-1.22,16.33,16.33,0,0,0,8.389.94c5.9-.856,14.669-3.1,21.023.424a1.348,1.348,0,0,1,.674,1.169h0a1.327,1.327,0,0,1-1.8,1.243,17.034,17.034,0,0,0-8.76-.8c-6.142,1.011-14.487,3.18-20.68-.152A1.348,1.348,0,0,1,30.92,274.256Z" transform="translate(-30.919 -250.14)" fill="#3077a9"/></g></g></svg>