<svg xmlns="http://www.w3.org/2000/svg" width="221.571" height="59.607" viewBox="0 0 221.571 59.607"><g transform="translate(0.001 -181.16)"><g transform="translate(-0.002 181.16)"><rect width="3.204" height="59.607" transform="translate(55.156)" fill="#fff"/><text transform="translate(62.571 32.35)" fill="#fff" font-size="24" font-family="SegoeUI, Segoe UI"><tspan x="0" y="0">spe</tspan><tspan y="0" letter-spacing="0.01em">c</tspan><tspan y="0">trab</tspan><tspan y="0" letter-spacing="0.02em">k</tspan><tspan y="0">hazia</tspan></text><path d="M30.919,259.122v-.629a2.1,2.1,0,0,1,2.842-1.9,25.417,25.417,0,0,0,13.057,1.463c9.182-1.332,22.832-4.83,32.722.656a2.1,2.1,0,0,1,1.049,1.825h0a2.061,2.061,0,0,1-2.795,1.93,26.581,26.581,0,0,0-13.634-1.232c-9.56,1.573-22.549,4.945-32.187-.236a2.1,2.1,0,0,1-1.054-1.877Z" transform="translate(-30.918 -230.175)" fill="#fff"/><path d="M30.92,240.648v-.655a2.1,2.1,0,0,1,2.842-1.9,25.418,25.418,0,0,0,13.057,1.463c9.182-1.332,22.832-4.83,32.722.655a2.1,2.1,0,0,1,1.049,1.825h0a2.061,2.061,0,0,1-2.795,1.93,26.581,26.581,0,0,0-13.634-1.232c-9.56,1.573-22.549,4.945-32.187-.236A2.1,2.1,0,0,1,30.92,240.648Z" transform="translate(-30.919 -221.377)" fill="#fff"/><path d="M30.92,275.479v-.656a2.1,2.1,0,0,1,2.842-1.9,25.416,25.416,0,0,0,13.057,1.463c9.182-1.332,22.832-4.83,32.722.661a2.1,2.1,0,0,1,1.049,1.82h0a2.066,2.066,0,0,1-2.795,1.935,26.512,26.512,0,0,0-13.634-1.238c-9.56,1.573-22.549,4.95-32.187-.236A2.1,2.1,0,0,1,30.92,275.479Z" transform="translate(-30.919 -237.943)" fill="#fff"/></g></g></svg>