<svg xmlns="http://www.w3.org/2000/svg" width="146.052" height="40.56" viewBox="0 0 146.052 40.56"><rect width="2.234" height="40.56" transform="translate(37.517)" fill="#fff"/><text transform="translate(40.052 21.428)" fill="#fff" font-size="16" font-family="SegoeUI, Segoe UI"><tspan x="0" y="0">spe</tspan><tspan y="0" letter-spacing="0.01em">c</tspan><tspan y="0">trab</tspan><tspan y="0" letter-spacing="0.02em">k</tspan><tspan y="0">hazia</tspan></text><path d="M30.919,258.094v-.439a1.462,1.462,0,0,1,1.982-1.323,17.721,17.721,0,0,0,9.1,1.02c6.4-.929,15.919-3.367,22.814.457a1.462,1.462,0,0,1,.731,1.272h0a1.437,1.437,0,0,1-1.949,1.345,18.532,18.532,0,0,0-9.506-.859c-6.665,1.1-15.721,3.448-22.441-.165a1.463,1.463,0,0,1-.735-1.309Z" transform="translate(-30.918 -238.407)" fill="#fff"/><path d="M30.92,239.612v-.457a1.462,1.462,0,0,1,1.982-1.324,17.722,17.722,0,0,0,9.1,1.02c6.4-.929,15.919-3.367,22.814.457a1.462,1.462,0,0,1,.731,1.272h0a1.437,1.437,0,0,1-1.949,1.345,18.533,18.533,0,0,0-9.506-.859c-6.665,1.1-15.721,3.448-22.441-.165A1.462,1.462,0,0,1,30.92,239.612Z" transform="translate(-30.919 -226.483)" fill="#fff"/><path d="M30.92,274.444v-.457a1.462,1.462,0,0,1,1.982-1.323,17.721,17.721,0,0,0,9.1,1.02c6.4-.929,15.919-3.367,22.814.461a1.462,1.462,0,0,1,.731,1.269h0a1.441,1.441,0,0,1-1.949,1.349A18.485,18.485,0,0,0,54.1,275.9c-6.665,1.1-15.721,3.451-22.441-.165A1.462,1.462,0,0,1,30.92,274.444Z" transform="translate(-30.919 -248.934)" fill="#fff"/></svg>