<svg xmlns="http://www.w3.org/2000/svg" width="33.292" height="32.15" viewBox="0 0 33.292 32.15"><path d="M5.568,24.215a7.748,7.748,0,0,1,1.7-4.951,7.87,7.87,0,0,1,4.4-2.829,9.462,9.462,0,0,1,3.376-5.4,9.312,9.312,0,0,1,6.028-2.106,9.562,9.562,0,0,1,9.291,7.346h.514a7.95,7.95,0,0,1,7.973,7.941,7.936,7.936,0,0,1-7.668,7.909c-.209,0-.322-.1-.322-.273V29.713c0-.193.113-.289.322-.289a4.975,4.975,0,0,0,3.5-1.64,5.259,5.259,0,0,0-3.842-8.841H28.266c-.193,0-.289-.1-.289-.273l-.129-.932A6.878,6.878,0,0,0,21.032,11.6a6.838,6.838,0,0,0-6.8,6.205l-.1.8a.284.284,0,0,1-.322.305l-.852.113A4.953,4.953,0,0,0,9.587,20.7a5.191,5.191,0,0,0,.08,7.105,5.04,5.04,0,0,0,3.5,1.64c.177,0,.273.1.273.289v2.138a.246.246,0,0,1-.273.273,7.651,7.651,0,0,1-5.466-2.411A7.988,7.988,0,0,1,5.568,24.215Zm8.841,12.378a1.317,1.317,0,0,1,1.318-1.334,1.35,1.35,0,0,1,.948.37,1.248,1.248,0,0,1,.386.948,1.272,1.272,0,0,1-.386.948,1.26,1.26,0,0,1-.948.37,1.35,1.35,0,0,1-.948-.37A1.285,1.285,0,0,1,14.409,36.593Zm1.382-5.835a1.288,1.288,0,0,1,.386-.932,1.272,1.272,0,0,1,.948-.386,1.341,1.341,0,0,1,.948,2.283,1.228,1.228,0,0,1-.948.4,1.252,1.252,0,0,1-.948-.4A1.309,1.309,0,0,1,15.792,30.758Zm3.054,8.986a1.374,1.374,0,0,1,.4-.981,1.252,1.252,0,0,1,.916-.386,1.372,1.372,0,0,1,1.382,1.366,1.252,1.252,0,0,1-.4.948,1.372,1.372,0,0,1-.981.386,1.262,1.262,0,0,1-.932-.386A1.394,1.394,0,0,1,18.846,39.744Zm1.4-5.884a1.438,1.438,0,0,1,.386-1,1.288,1.288,0,0,1,.932-.386,1.374,1.374,0,0,1,0,2.749,1.218,1.218,0,0,1-.932-.4A1.361,1.361,0,0,1,20.245,33.861Zm.675-5.819a1.312,1.312,0,0,1,.4-.965,1.364,1.364,0,0,1,.916-.386,1.322,1.322,0,0,1,.981.4,1.287,1.287,0,0,1,.4.965,1.252,1.252,0,0,1-.4.948,1.372,1.372,0,0,1-.981.386,1.262,1.262,0,0,1-.932-.386A1.361,1.361,0,0,1,20.92,28.041Zm3.81,8.552a1.293,1.293,0,0,1,1.35-1.334,1.323,1.323,0,0,1,.948.37,1.26,1.26,0,0,1,.37.948,1.323,1.323,0,0,1-.37.948,1.26,1.26,0,0,1-.948.37,1.309,1.309,0,0,1-.965-.386A1.2,1.2,0,0,1,24.73,36.593ZM26.1,30.758a1.267,1.267,0,0,1,.4-.932,1.312,1.312,0,0,1,.965-.4,1.341,1.341,0,0,1,.948,2.283,1.228,1.228,0,0,1-.948.4,1.263,1.263,0,0,1-.965-.4A1.313,1.313,0,0,1,26.1,30.758Z" transform="translate(-5.568 -8.928)" fill="#5389af"/></svg>