<svg xmlns="http://www.w3.org/2000/svg" width="27.597" height="27.597" viewBox="0 0 27.597 27.597"><path d="M25.625,2.25H1.965A1.98,1.98,0,0,0,0,4.24V27.857a1.98,1.98,0,0,0,1.965,1.99h23.66a1.985,1.985,0,0,0,1.971-1.99V4.24A1.985,1.985,0,0,0,25.625,2.25ZM8.341,25.9H4.25V12.734h4.1V25.9ZM6.3,10.936A2.372,2.372,0,1,1,8.667,8.564,2.373,2.373,0,0,1,6.3,10.936ZM23.673,25.9h-4.09V19.5c0-1.528-.031-3.493-2.125-3.493-2.131,0-2.458,1.663-2.458,3.382V25.9h-4.09V12.734h3.924v1.8h.055a4.308,4.308,0,0,1,3.875-2.125c4.14,0,4.909,2.729,4.909,6.277Z" transform="translate(0 -2.25)" fill="#fff"/></svg>