<svg xmlns="http://www.w3.org/2000/svg" width="33.642" height="23.654" viewBox="0 0 33.642 23.654"><path d="M33.989,8.2a4.227,4.227,0,0,0-2.974-2.994C28.391,4.5,17.871,4.5,17.871,4.5s-10.52,0-13.144.708A4.227,4.227,0,0,0,1.753,8.2a44.344,44.344,0,0,0-.7,8.15,44.344,44.344,0,0,0,.7,8.15,4.164,4.164,0,0,0,2.974,2.946c2.624.708,13.144.708,13.144.708s10.52,0,13.144-.708A4.164,4.164,0,0,0,33.989,24.5a44.344,44.344,0,0,0,.7-8.15,44.344,44.344,0,0,0-.7-8.15ZM14.43,21.353v-10l8.793,5-8.793,5Z" transform="translate(-1.05 -4.5)" fill="#fff"/></svg>