<svg xmlns="http://www.w3.org/2000/svg" width="31.539" height="25.615" viewBox="0 0 31.539 25.615"><path d="M28.3,9.765c.02.28.02.56.02.841C28.317,19.15,21.813,29,9.926,29A18.266,18.266,0,0,1,0,26.094a13.372,13.372,0,0,0,1.561.08,12.945,12.945,0,0,0,8.025-2.762A6.475,6.475,0,0,1,3.542,18.93a8.151,8.151,0,0,0,1.221.1,6.836,6.836,0,0,0,1.7-.22,6.465,6.465,0,0,1-5.183-6.344v-.08a6.51,6.51,0,0,0,2.922.82,6.474,6.474,0,0,1-2-8.645,18.373,18.373,0,0,0,13.328,6.764,7.3,7.3,0,0,1-.16-1.481A6.47,6.47,0,0,1,26.556,5.422a12.726,12.726,0,0,0,4.1-1.561,6.446,6.446,0,0,1-2.842,3.562,12.958,12.958,0,0,0,3.722-1A13.9,13.9,0,0,1,28.3,9.765Z" transform="translate(0 -3.381)" fill="#fff"/></svg>